<svg width="25" height="25" viewBox="0 0 25 25" fill="none" xmlns="http://www.w3.org/2000/svg">
<path d="M2.67847 6.25C2.67847 5.75689 3.07822 5.35715 3.57132 5.35715H21.4285C21.9216 5.35715 22.3213 5.75689 22.3213 6.25C22.3213 6.74312 21.9216 7.14286 21.4285 7.14286H3.57132C3.07822 7.14286 2.67847 6.74312 2.67847 6.25Z" fill="#57198B"/>
<path d="M2.67847 12.5C2.67847 12.0069 3.07822 11.6071 3.57132 11.6071H21.4285C21.9216 11.6071 22.3213 12.0069 22.3213 12.5C22.3213 12.9931 21.9216 13.3929 21.4285 13.3929H3.57132C3.07822 13.3929 2.67847 12.9931 2.67847 12.5Z" fill="#57198B"/>
<path d="M3.57132 17.8571C3.07822 17.8571 2.67847 18.2569 2.67847 18.75C2.67847 19.2431 3.07822 19.6429 3.57132 19.6429H21.4285C21.9216 19.6429 22.3213 19.2431 22.3213 18.75C22.3213 18.2569 21.9216 17.8571 21.4285 17.8571H3.57132Z" fill="#57198B"/>
</svg>
